<svg width="48" height="48" viewBox="0 0 24 24" fill="none" xmlns="http://www.w3.org/2000/svg">
    <path d="M8.52671 7.3715C8.37215 7.60796 8.11196 7.75 7.83333 7.75H4.5C4.03976 7.75 3.66667 8.13056 3.66667 8.6V17.95C3.66667 18.4194 4.03976 18.8 4.5 18.8H19.5C19.9602 18.8 20.3333 18.4194 20.3333 17.95V8.6C20.3333 8.13056 19.9602 7.75 19.5 7.75H16.1667C15.888 7.75 15.6278 7.60796 15.4733 7.3715L14.054 5.2H9.94599L8.52671 7.3715ZM19.5 6.05C20.8807 6.05 22 7.19167 22 8.6V17.95C22 19.3583 20.8807 20.5 19.5 20.5H4.5C3.11929 20.5 2 19.3583 2 17.95V8.6C2 7.19167 3.11929 6.05 4.5 6.05H7.38735L8.80662 3.8785C8.96118 3.64204 9.22137 3.5 9.5 3.5H14.5C14.7786 3.5 15.0388 3.64204 15.1934 3.8785L16.6127 6.05H19.5ZM12 17.1C9.69881 17.1 7.83333 15.1972 7.83333 12.85C7.83333 10.5028 9.69881 8.6 12 8.6C14.3012 8.6 16.1667 10.5028 16.1667 12.85C16.1667 15.1972 14.3012 17.1 12 17.1ZM12 15.4C13.3807 15.4 14.5 14.2583 14.5 12.85C14.5 11.4417 13.3807 10.3 12 10.3C10.6193 10.3 9.5 11.4417 9.5 12.85C9.5 14.2583 10.6193 15.4 12 15.4Z" fill="#004DBC"/>
</svg>
